Coordinates
version=1
nRows=14
nColumns=32
inDegrees=yes

Units are S.I. units (second, meters, Newtons, ...)
If the header above contains a line with 'inDegrees', this indicates whether rotational values are in degrees (yes) or radians (no).

endheader
time	pelvis_tilt	pelvis_list	pelvis_rotation	pelvis_tx	pelvis_ty	pelvis_tz	hip_flexion_r	hip_adduction_r	hip_rotation_r	knee_angle_r	knee_adduction_r	med_cond_adduction_r	lat_cond_adduction_r	patella_r_constrained_knee_angle	ankle_angle_r	subtalar_angle_r	mtp_angle_r	hip_flexion_l	hip_adduction_l	hip_rotation_l	knee_angle_l	knee_adduction_l	med_cond_adduction_l	lat_cond_adduction_l	patella_l_constrained_knee_angle	ankle_angle_l	subtalar_angle_l	mtp_angle_l	lumbar_extension	lumbar_bending	lumbar_rotation
      2.42000000	    -23.06977012	     -3.44210444	     -2.76960235	      0.11233850	      0.48721606	     -1.19806370	    108.79868132	    -49.79389178	      5.51294509	   -112.64886387	      0.00000000	     -0.00000000	      0.00000000	     -1.96609357	     16.72162140	     19.63727779	     -0.00000000	    119.16764612	    -49.77997482	     17.61022011	   -111.91723857	     -0.00000000	      0.00000000	     -0.00000000	     -1.95332430	     19.26396540	     19.78561041	     -0.00000000	    -24.11305234	      4.39417473	      1.18848431
      2.42500000	    -23.48252510	     -3.64331035	     -2.79424763	      0.11187972	      0.49116494	     -1.19798405	    108.03786006	    -49.78691207	      4.37464406	   -112.02087051	      0.00000000	      0.00000000	     -0.00000000	     -1.95513302	     16.55809621	     19.63392108	     -0.00000000	    119.07754951	    -49.76969427	     17.23578364	   -111.25755740	     -0.00000000	     -0.00000000	      0.00000000	     -1.94181069	     18.91256467	     19.78430630	      0.00000000	    -23.61790430	      4.57089983	      1.04893373
      2.43000000	    -23.91472065	     -3.86519996	     -2.82866728	      0.11144181	      0.49519334	     -1.19786503	    107.23543833	    -49.77577760	      3.16570042	   -111.35809158	     -0.00000000	      0.00000000	     -0.00000000	     -1.94356535	     16.30522682	     19.62917131	     -0.00000000	    119.00393366	    -49.75608500	     16.89396058	   -110.56841491	      0.00000000	     -0.00000000	      0.00000000	     -1.92978289	     18.60307240	     19.78298832	     -0.00000000	    -23.11258541	      5.09770514	      2.03304980
      2.43500000	    -24.27172912	     -4.05955447	     -2.84388238	      0.11107687	      0.49927400	     -1.19782529	    106.42321765	    -49.76742210	      2.04220924	   -110.72486458	      0.00000000	      0.00000000	     -0.00000000	     -1.93251345	     16.22271030	     19.62756617	      0.00000000	    118.82837945	    -49.74947569	     16.49086298	   -109.91355292	     -0.00000000	     -0.00000000	      0.00000000	     -1.91835339	     18.28306920	     19.78221937	     -0.00000000	    -22.65137407	      5.10704454	      1.29070144
      2.44000000	    -24.65317751	     -4.25898521	     -2.85876354	      0.11071283	      0.50340559	     -1.19774838	    105.61109905	    -49.75847397	      0.89231138	   -110.05959649	      0.00000000	      0.00000000	     -0.00000000	     -1.92090233	     16.02595477	     19.62422200	      0.00000000	    118.65589693	    -49.73721467	     16.08643345	   -109.22188845	      0.00000000	      0.00000000	     -0.00000000	     -1.90628157	     17.92722901	     19.78111754	     -0.00000000	    -22.17081010	      5.29555554	      1.15623357
      2.44500000	    -24.98192489	     -4.50073673	     -2.87853708	      0.11042093	      0.50769654	     -1.19767975	    104.65431864	    -49.74733454	     -0.35650189	   -109.38039936	     -0.00000000	     -0.00000000	      0.00000000	     -1.90904811	     15.87968620	     19.62233379	      0.00000000	    118.47512866	    -49.72616920	     15.74750111	   -108.52175040	     -0.00000000	     -0.00000000	      0.00000000	     -1.89406185	     17.52376670	     19.78012965	     -0.00000000	    -21.74455447	      5.57256429	      1.16960325
      2.45000000	    -25.32573043	     -4.72055129	     -2.89231913	      0.11015238	      0.51199825	     -1.19762201	    103.74150620	    -49.73620270	     -1.57037273	   -108.67739214	     -0.00000000	      0.00000000	     -0.00000000	     -1.89677832	     15.63752084	     19.61903087	     -0.00000000	    118.24502454	    -49.71190642	     15.35553060	   -107.81453305	      0.00000000	      0.00000000	     -0.00000000	     -1.88171858	     17.29411967	     19.77967767	      0.00000000	    -21.29916592	      5.72007397	      0.79079945
      2.45500000	    -25.66195175	     -4.89407196	     -2.89065319	      0.10991026	      0.51631292	     -1.19752931	    102.88503938	    -49.72146434	     -2.71656001	   -107.97783963	     -0.00000000	     -0.00000000	      0.00000000	     -1.88456882	     15.49731033	     19.61682286	      0.00000000	    117.94181114	    -49.70138402	     14.88357899	   -107.09434437	     -0.00000000	     -0.00000000	      0.00000000	     -1.86914892	     16.94243190	     19.77866666	     -0.00000000	    -20.84336547	      6.12185569	      1.41594751
      2.46000000	    -25.97672032	     -5.02376299	     -2.86087569	      0.10970130	      0.52071024	     -1.19746296	    102.08654280	    -49.71026821	     -3.74198494	   -107.27784915	     -0.00000000	      0.00000000	     -0.00000000	     -1.87235168	     15.31186874	     19.61533905	      0.00000000	    117.51397240	    -49.68815726	     14.30521497	   -106.35623043	     -0.00000000	     -0.00000000	      0.00000000	     -1.85626640	     16.65644816	     19.77825235	     -0.00000000	    -20.40384158	      6.22243862	      1.16519252
      2.46500000	    -26.22012888	     -5.29316920	     -2.86164592	      0.10961066	      0.52533622	     -1.19741578	    100.93803898	    -49.69709559	     -5.08979533	   -106.53823341	     -0.00000000	     -0.00000000	      0.00000000	     -1.85944295	     15.16163714	     19.61375165	     -0.00000000	    117.19815350	    -49.67272165	     13.95999591	   -105.61007350	     -0.00000000	      0.00000000	     -0.00000000	     -1.84324351	     16.31744964	     19.77806036	     -0.00000000	    -20.05340596	      6.38424162	      0.65975043
      2.47000000	    -26.52356141	     -5.31359835	     -2.79895310	      0.10942574	      0.52978412	     -1.19734997	    100.29804696	    -49.68362954	     -5.91337181	   -105.81862586	      0.00000000	      0.00000000	     -0.00000000	     -1.84688343	     14.93721166	     19.61273894	     -0.00000000	    116.56842029	    -49.66077616	     13.17187411	   -104.85295625	      0.00000000	     -0.00000000	      0.00000000	     -1.83002932	     16.07028657	     19.77751485	     -0.00000000	    -19.59770485	      6.52366258	      0.84505825
      2.47500000	    -26.75455572	     -5.46802668	     -2.76271145	      0.10936517	      0.53447193	     -1.19730949	     99.31999324	    -49.66784980	     -7.04284059	   -105.06597335	     -0.00000000	     -0.00000000	      0.00000000	     -1.83374717	     14.77409232	     19.61146301	      0.00000000	    116.03623914	    -49.64726410	     12.60131070	   -104.08106318	     -0.00000000	      0.00000000	     -0.00000000	     -1.81655724	     15.80031427	     19.77737527	     -0.00000000	    -19.24184084	      6.80586648	      1.08970910
      2.48000000	    -27.07280954	     -5.29602567	     -2.66389753	      0.10916263	      0.53881537	     -1.19715916	     99.04019093	    -49.65210731	     -7.47225147	   -104.37281731	     -0.00000000	      0.00000000	     -0.00000000	     -1.82164931	     14.46791421	     19.61101880	      0.00000000	    115.13334750	    -49.63956333	     11.49524146	   -103.30106826	      0.00000000	     -0.00000000	      0.00000000	     -1.80294376	     15.65366970	     19.77661326	      0.00000000	    -18.70425313	      6.55379108	      0.69783928
      2.48500000	    -27.26660701	     -5.48309620	     -2.62085133	      0.10923439	      0.54362714	     -1.19714047	     97.94296542	    -49.63083287	     -8.67348638	   -103.59388831	      0.00000000	     -0.00000000	      0.00000000	     -1.80805444	     14.33863377	     19.61058864	     -0.00000000	    114.58246182	    -49.62204000	     10.95028375	   -102.51785508	      0.00000000	     -0.00000000	      0.00000000	     -1.78927411	     15.39711794	     19.77680268	     -0.00000000	    -18.37892217	      6.72473464	      0.41436527
